<?xml version="1.0" standalone="no"?>
<!DOCTYPE svg PUBLIC "-//W3C//DTD SVG 20010904//EN"
 "http://www.w3.org/TR/2001/REC-SVG-20010904/DTD/svg10.dtd">
<svg version="1.0" xmlns="http://www.w3.org/2000/svg"
 width="222.000000pt" height="233.000000pt" viewBox="0 0 222.000000 233.000000"
 preserveAspectRatio="xMidYMid meet">

<g transform="translate(0.000000,233.000000) scale(0.100000,-0.100000)"
fill="#000000" stroke="none">
<path d="M870 2264 c-87 -17 -305 -110 -350 -149 -10 -8 -62 -15 -145 -19
-144 -8 -266 -23 -277 -34 -4 -4 -19 -99 -33 -212 -23 -177 -26 -231 -22 -395
5 -207 20 -295 77 -466 26 -77 95 -223 135 -288 25 -40 129 -175 185 -241 76
-88 199 -188 326 -265 151 -91 241 -135 279 -135 64 0 323 133 465 238 74 56
252 229 320 311 148 181 277 447 309 638 6 32 16 87 23 123 27 145 4 632 -33
676 -14 17 -53 22 -344 43 -220 16 -254 21 -285 40 -74 45 -200 103 -256 117
-59 14 -327 27 -374 18z m240 -58 c79 -1 148 -9 187 -19 86 -24 223 -103 223
-129 0 -15 -18 -8 -92 37 -103 64 -160 79 -288 76 -161 -4 -161 -4 -233 16
-83 22 -76 38 13 28 36 -3 121 -8 190 -9z m246 -85 c126 -59 201 -144 244
-274 26 -81 7 -270 -31 -308 -15 -15 -33 -19 -85 -19 -37 0 -123 -11 -192 -25
l-126 -26 -147 147 c-81 81 -153 158 -160 171 -15 27 -1 78 57 216 61 146 85
159 271 153 90 -3 111 -8 169 -35z m-462 13 c25 -9 19 -40 -20 -114 -61 -116
-91 -144 -232 -211 -77 -36 -133 -57 -144 -53 -23 7 -50 59 -46 87 3 20 5 19
21 -10 10 -18 23 -33 31 -33 19 0 185 106 223 142 17 17 52 68 78 114 46 82
56 91 89 78z m-386 -111 c-49 -65 -98 -155 -98 -180 0 -7 -19 -25 -42 -39 -24
-14 -62 -45 -85 -67 -35 -33 -43 -37 -43 -22 0 35 82 157 159 238 63 66 144
137 157 137 2 0 -20 -30 -48 -67z m-98 9 c0 -11 -39 -47 -65 -59 -11 -6 -46
-14 -77 -17 -64 -8 -59 4 -77 -166 -6 -47 -21 -128 -35 -180 -14 -52 -30 -126
-37 -164 -14 -83 -29 -71 -29 24 0 133 43 525 60 543 14 16 260 33 260 19z
m1476 -7 c104 -9 193 -20 198 -25 16 -16 35 -223 36 -392 0 -190 -22 -332 -78
-504 -57 -173 -119 -288 -237 -439 -90 -115 -275 -290 -385 -363 -92 -62 -310
-175 -360 -187 -18 -4 -51 8 -123 44 -168 87 -264 156 -396 288 -127 127 -152
167 -58 95 68 -53 213 -136 269 -156 135 -45 322 -59 449 -32 158 34 321 120
429 226 222 220 320 441 320 721 0 176 -46 361 -115 463 -34 50 -14 45 28 -6
83 -101 125 -224 143 -413 6 -60 8 -66 15 -41 30 106 35 425 11 585 -9 55 -14
57 -205 69 -132 8 -138 9 -167 37 -55 52 -54 53 226 30z m-265 -107 c21 -42
38 -140 22 -123 -6 6 -16 28 -23 50 -7 22 -23 61 -36 87 -13 26 -24 50 -24 54
0 15 43 -33 61 -68z m-1191 -175 c29 -47 35 -83 15 -90 -12 -4 -75 98 -75 121
0 31 30 15 60 -31z m560 -129 l163 -166 -7 -75 c-13 -155 -72 -397 -104 -427
-23 -20 -129 -44 -237 -52 -93 -8 -116 1 -199 70 -57 47 -156 169 -188 230
-40 75 -20 265 43 423 15 38 31 58 57 74 75 44 208 87 273 88 34 1 47 -10 199
-165z m750 110 c69 -46 101 -88 126 -169 34 -107 45 -262 20 -300 -24 -36 -94
-85 -123 -85 -26 0 -31 8 -65 120 -12 41 -40 111 -63 155 l-40 80 17 65 c9 36
17 81 17 101 1 20 4 39 8 42 12 13 79 7 103 -9z m-1547 -241 c-15 -70 -9 -235
10 -270 17 -32 13 -67 -7 -60 -24 8 -37 91 -33 212 5 120 11 155 29 155 5 0 6
-15 1 -37z m1345 0 c-2 -14 -18 -20 -63 -25 -51 -7 -146 -29 -233 -54 -21 -6
-23 -4 -20 22 3 25 9 29 57 41 69 18 153 30 214 32 41 1 48 -2 45 -16z m362
-277 c0 -45 -30 -166 -59 -242 -50 -128 -106 -211 -215 -319 -111 -110 -200
-168 -282 -185 -30 -6 -53 -16 -51 -22 6 -30 -234 -63 -346 -48 -148 21 -283
71 -385 143 -75 53 -228 217 -275 293 -47 78 -77 171 -77 238 0 54 0 55 38 67
20 6 59 23 85 36 27 13 52 23 57 21 4 -2 35 -39 68 -83 57 -77 140 -162 191
-198 24 -16 25 -21 22 -115 -2 -79 2 -111 20 -165 12 -37 19 -71 15 -74 -4 -4
-42 0 -84 9 -42 8 -78 14 -80 13 -9 -8 98 -35 137 -35 24 0 63 -9 86 -20 22
-11 65 -24 94 -30 59 -11 199 -12 246 -1 22 5 42 1 74 -16 24 -13 58 -23 75
-22 l31 1 -32 8 c-31 7 -83 35 -83 45 0 3 19 31 43 63 41 56 60 94 89 176 12
36 17 39 88 60 41 12 103 37 138 54 34 18 67 30 71 28 12 -8 31 -89 31 -133
-1 -21 -7 -49 -15 -63 -22 -38 -18 -49 5 -15 23 34 27 112 10 192 -10 47 -9
50 47 162 53 106 61 115 93 124 33 8 101 52 108 69 8 17 22 7 22 -16z m-1715
-86 c3 -5 1 -10 -4 -10 -6 0 -11 5 -11 10 0 6 2 10 4 10 3 0 8 -4 11 -10z
m1410 -146 c-41 -63 -162 -110 -260 -102 -61 5 -158 61 -170 98 -9 30 3 38 19
14 8 -11 40 -33 72 -49 45 -23 72 -30 114 -29 66 1 164 41 206 85 32 34 45 22
19 -17z m-818 -370 c126 -59 262 -62 373 -6 30 15 58 29 62 30 5 2 8 -3 8 -12
0 -9 -19 -35 -42 -60 -34 -34 -54 -46 -96 -55 -146 -31 -320 8 -357 79 -16 31
-19 50 -8 50 3 0 31 -12 60 -26z"/>
</g>
</svg>
